<svg width="24" height="24" viewBox="0 0 24 24" fill="none" xmlns="http://www.w3.org/2000/svg">
  <path d="M22.5 12C22.5 6.47803 17.522 1.5 12 1.5C6.47803 1.5 1.5 6.47803 1.5 12C1.5 17.022 5.12897 21.336 9.9375 22.2769V14.85H7.3725V12H9.9375V9.7755C9.9375 7.24903 11.5755 5.772 13.8615 5.772C14.9235 5.772 15.8723 5.97578 15.8723 5.97578V8.4825H14.5035C13.158 8.4825 12.75 9.25425 12.75 10.0553V12H15.7238L15.2648 14.85H12.75V22.2769C17.5585 21.336 21.1875 17.022 21.1875 12H22.5Z" fill="currentColor"/>
</svg>
